<svg width="48" height="48" viewBox="0 0 48 48" fill="none" xmlns="http://www.w3.org/2000/svg">
<g id="Google">
<path id="Back" d="M0 24C0 10.7452 10.7452 0 24 0C37.2548 0 48 10.7452 48 24C48 37.2548 37.2548 48 24 48C10.7452 48 0 37.2548 0 24Z" fill="#EEF0F2"/>
<path id="Path" d="M23.9996 16.6399C26.2531 16.6399 27.7731 17.6133 28.6398 18.4266L32.0266 15.1199C29.9465 13.1865 27.2398 11.9998 23.9996 11.9998C19.3062 11.9998 15.2527 14.6932 13.2793 18.6133L17.1594 21.6267C18.1328 18.7333 20.8262 16.6399 23.9996 16.6399Z" fill="#EA4335"/>
<path id="Path_2" d="M35.5204 24.2668C35.5204 23.2801 35.4404 22.56 35.267 21.8134H24V26.2668H30.6135C30.4802 27.3735 29.7602 29.0403 28.1601 30.1603L31.9469 33.0937C34.2137 31.0003 35.5204 27.9202 35.5204 24.2668Z" fill="#4285F4"/>
<path id="Path_3" d="M17.1728 26.3734C16.9194 25.6267 16.7728 24.8267 16.7728 24C16.7728 23.1733 16.9194 22.3733 17.1594 21.6266L13.2793 18.6132C12.4659 20.2399 11.9993 22.0666 11.9993 24C11.9993 25.9334 12.4659 27.7601 13.2793 29.3868L17.1728 26.3734Z" fill="#FBBC05"/>
<path id="Path_4" d="M23.9997 36.0004C27.2398 36.0004 29.9599 34.9337 31.9467 33.0936L28.1599 30.1602C27.1465 30.8669 25.7865 31.3602 23.9997 31.3602C20.8263 31.3602 18.1329 29.2668 17.1729 26.3734L13.2927 29.3868C15.2661 33.307 19.3063 36.0004 23.9997 36.0004Z" fill="#34A853"/>
</g>
</svg>
