<svg width="164" height="44" viewBox="0 0 164 44" fill="none" xmlns="http://www.w3.org/2000/svg">
<g clip-path="url(#clip0_4095_164074)">
<path d="M96.043 40.3164H98.4111V40.9424H96.7996V41.912H98.2712V42.5117H96.7996V43.9388H96.043V40.3164Z" fill="white"/>
<path d="M103.047 40.3164H105.443V40.9424H103.803V41.8091H105.349V42.4045H103.803V43.3128H105.443V43.9388H103.047V40.3164Z" fill="white"/>
<path d="M111.47 43.3089C111.695 43.3089 111.885 43.2629 112.041 43.1732C112.196 43.0834 112.312 42.9499 112.393 42.7726C112.473 42.5953 112.513 42.3765 112.513 42.116V42.1116C112.513 41.8599 112.471 41.6476 112.39 41.4747C112.307 41.3018 112.189 41.1683 112.034 41.0786C111.879 40.9888 111.691 40.945 111.47 40.945H110.936V43.3111H111.47V43.3089ZM110.18 40.3147H111.562C111.925 40.3147 112.233 40.3847 112.491 40.5226C112.747 40.6627 112.944 40.8641 113.081 41.1311C113.219 41.3981 113.287 41.722 113.287 42.1051V42.1094C113.287 42.4925 113.219 42.8208 113.084 43.0922C112.948 43.3658 112.751 43.5737 112.493 43.716C112.235 43.8604 111.925 43.9327 111.564 43.9327H110.182V40.3125L110.18 40.3147Z" fill="white"/>
<path d="M117.963 40.3164H120.359V40.9424H118.719V41.8091H120.265V42.4045H118.719V43.3128H120.359V43.9388H117.963V40.3164Z" fill="white"/>
<path d="M126.506 42.0538C126.694 42.0538 126.841 42.0034 126.948 41.9028C127.055 41.8021 127.107 41.6642 127.107 41.4869V41.4825C127.107 41.3096 127.053 41.1717 126.941 41.0689C126.83 40.966 126.681 40.9156 126.495 40.9156H125.85V42.056H126.504L126.506 42.0538ZM125.096 40.3203H126.589C126.86 40.3203 127.092 40.3663 127.285 40.4604C127.477 40.5523 127.626 40.6858 127.728 40.8587C127.831 41.0316 127.882 41.2374 127.882 41.4803V41.4847C127.882 41.7233 127.822 41.9356 127.704 42.1216C127.586 42.3055 127.427 42.439 127.228 42.5178L127.991 43.9427H127.131L126.46 42.6338H125.854V43.9427H125.098V40.3225L125.096 40.3203Z" fill="white"/>
<path d="M133.096 42.492H134.97V43.0589H133.096V42.492ZM133.595 40.3164H134.485L135.744 43.9366H134.946L134.05 41.019H134.035L133.134 43.9366H132.34L133.595 40.3164Z" fill="white"/>
<path d="M140.674 40.9424H139.627V40.3164H142.481V40.9424H141.431V43.9388H140.674V40.9424Z" fill="white"/>
<path d="M147.844 40.3164H147.088V43.9366H147.844V40.3164Z" fill="white"/>
<path d="M154.785 43.206C154.929 43.1053 155.041 42.9631 155.119 42.7792C155.198 42.5954 155.237 42.3787 155.237 42.1292V42.1248C155.237 41.8731 155.198 41.6564 155.117 41.4726C155.038 41.2887 154.925 41.1464 154.78 41.0479C154.634 40.9473 154.463 40.8991 154.266 40.8991C154.07 40.8991 153.897 40.9495 153.753 41.0479C153.606 41.1464 153.492 41.2887 153.414 41.4726C153.335 41.6564 153.296 41.8731 153.296 42.127V42.1314C153.296 42.3831 153.335 42.5998 153.414 42.7836C153.492 42.9675 153.606 43.1097 153.75 43.2104C153.895 43.3111 154.067 43.3614 154.266 43.3614C154.465 43.3614 154.64 43.3111 154.785 43.2104M153.339 43.7773C153.077 43.6263 152.876 43.4096 152.734 43.1294C152.591 42.8493 152.521 42.5166 152.521 42.1314V42.127C152.521 41.7418 152.594 41.4113 152.736 41.1311C152.878 40.851 153.081 40.6365 153.341 40.4854C153.604 40.3344 153.912 40.2578 154.269 40.2578C154.625 40.2578 154.936 40.3344 155.196 40.4854C155.456 40.6387 155.657 40.8531 155.799 41.1311C155.941 41.4091 156.011 41.7418 156.011 42.1248V42.1292C156.011 42.5144 155.939 42.8449 155.799 43.125C155.657 43.4052 155.456 43.6197 155.196 43.7729C154.936 43.9261 154.625 44.0005 154.266 44.0005C153.908 44.0005 153.6 43.9239 153.337 43.7729" fill="white"/>
<path d="M160.688 40.3164H161.35L163.314 43.1508L162.68 42.6715H162.999V40.3164H163.753V43.9388H163.097L161.125 41.089L161.761 41.5684H161.442V43.9388H160.688V40.3164Z" fill="white"/>
<path d="M133.029 4.61384C133.184 5.12819 133.47 5.71915 133.89 6.38671C134.063 6.65811 134.258 6.94046 134.474 7.23156C134.691 7.52266 134.909 7.80938 135.132 8.09611C135.355 8.38064 135.567 8.65423 135.773 8.9125C135.976 9.17296 136.147 9.40715 136.283 9.61727C136.554 10.0375 136.744 10.4227 136.849 10.7685C136.954 11.1144 137.006 11.4558 137.006 11.7907C137.006 12.3357 136.893 12.7559 136.663 13.0536C136.433 13.3512 136.086 13.5001 135.616 13.5001C135.183 13.5001 134.846 13.3709 134.605 13.1105C134.365 12.85 134.245 12.548 134.245 12.2V11.8476L132.668 11.4383V12.2175C132.668 12.6136 132.738 12.9857 132.88 13.3315C133.022 13.6774 133.223 13.9794 133.484 14.2311C133.744 14.485 134.061 14.6864 134.439 14.8352C134.817 14.984 135.246 15.0584 135.729 15.0584C136.731 15.0584 137.468 14.7455 137.938 14.1195C138.408 13.4935 138.642 12.6443 138.642 11.5652C138.642 11.0334 138.576 10.5628 138.447 10.1535C138.318 9.74422 138.111 9.31085 137.826 8.8534C137.654 8.582 137.448 8.27996 137.214 7.95384C136.978 7.62553 136.735 7.29065 136.482 6.9514C136.228 6.61215 135.981 6.28603 135.74 5.97742C135.5 5.66881 135.299 5.39521 135.137 5.16102C134.89 4.8152 134.702 4.48252 134.57 4.16734C134.439 3.85216 134.376 3.5151 134.376 3.15615C134.376 2.72278 134.483 2.35507 134.699 2.05084C134.916 1.7466 135.253 1.59558 135.71 1.59558C136.105 1.59558 136.414 1.72034 136.637 1.96767C136.86 2.21499 136.971 2.54987 136.971 2.9701V3.3597H138.548V2.83878C138.548 1.98518 138.301 1.29792 137.807 0.776998C137.31 0.260459 136.624 0 135.747 0C135.672 0 135.6 0.00437746 135.528 0.00875491L132.817 2.72278C132.806 2.85629 132.797 2.99418 132.797 3.13864C132.797 3.60921 132.874 4.10168 133.029 4.61384Z" fill="white"/>
<path d="M141.515 11.2719L142.628 3.99224L143.778 11.2719H141.515ZM143.417 0H141.816L139.275 15.0606H140.926L141.289 12.7012H143.999L144.377 15.0606H146.028L143.417 0Z" fill="white"/>
<path d="M153.111 12.1453V0H151.441V12.1256C151.441 12.5458 151.32 12.8653 151.078 13.082C150.837 13.2987 150.518 13.406 150.122 13.406C149.75 13.406 149.444 13.2987 149.204 13.082C148.963 12.8653 148.841 12.5458 148.841 12.1256V0H147.133V12.1453C147.133 12.6027 147.209 13.012 147.365 13.3709C147.52 13.7299 147.73 14.0363 147.994 14.2902C148.261 14.5441 148.572 14.7367 148.93 14.8658C149.289 14.995 149.678 15.0606 150.1 15.0606C150.522 15.0606 150.914 14.995 151.279 14.8658C151.644 14.7367 151.961 14.5441 152.234 14.2902C152.505 14.0363 152.72 13.7299 152.875 13.3709C153.03 13.012 153.107 12.6027 153.107 12.1453" fill="white"/>
<path d="M158.991 11.8301C158.991 12.8829 158.544 13.4081 157.655 13.4081H156.485V1.65249H157.655C158.544 1.65249 158.991 2.17778 158.991 3.23056V11.8279V11.8301ZM160.679 11.7184V3.34219C160.679 2.20405 160.418 1.36139 159.9 0.816396C159.38 0.273591 158.676 0 157.786 0H154.781V15.0606H157.786C158.676 15.0606 159.382 14.7892 159.9 14.2442C160.421 13.6992 160.679 12.8588 160.679 11.7184Z" fill="white"/>
<path d="M164.003 0H162.295V15.0606H164.003V0Z" fill="white"/>
<path d="M119.882 33.9108V32.2583H116.784V27.2461H118.975V25.5915H116.784V21.0236H119.882V19.3711H116.95L115.078 21.2446V33.9108H119.882Z" fill="white"/>
<path d="M126.489 27.9689C126.316 27.6975 126.11 27.3954 125.876 27.0693C125.642 26.741 125.398 26.4083 125.144 26.0669C124.89 25.7276 124.643 25.4015 124.403 25.0929C124.162 24.7843 123.961 24.5107 123.799 24.2765C123.552 23.9307 123.364 23.598 123.233 23.2828C123.104 22.9676 123.038 22.6306 123.038 22.2716C123.038 21.8382 123.145 21.4705 123.362 21.1663C123.578 20.8621 123.915 20.7111 124.372 20.7111C124.768 20.7111 125.076 20.8358 125.299 21.0831C125.522 21.3305 125.634 21.6653 125.634 22.0856V22.4752H127.21V21.9543C127.21 21.1006 126.963 20.4134 126.469 19.8925C125.975 19.3716 125.288 19.1133 124.409 19.1133C123.53 19.1133 122.804 19.3956 122.266 19.9581C121.728 20.5206 121.459 21.2867 121.459 22.2519C121.459 22.7225 121.536 23.215 121.691 23.7271C121.846 24.2415 122.133 24.8324 122.555 25.5C122.728 25.7714 122.922 26.0537 123.139 26.3448C123.355 26.6359 123.574 26.9227 123.797 27.2094C124.02 27.4939 124.232 27.7675 124.438 28.0258C124.641 28.2862 124.811 28.5204 124.947 28.7306C125.218 29.1508 125.408 29.536 125.513 29.8818C125.618 30.2276 125.671 30.5691 125.671 30.904C125.671 31.449 125.557 31.8692 125.328 32.1669C125.098 32.4645 124.748 32.6134 124.278 32.6134C123.845 32.6134 123.508 32.4842 123.268 32.2238C123.027 31.9633 122.905 31.6613 122.905 31.3132V30.9609L121.328 30.5516V31.3308C121.328 31.7269 121.398 32.099 121.542 32.4448C121.685 32.7928 121.886 33.0927 122.146 33.3444C122.406 33.5983 122.723 33.7996 123.102 33.9485C123.48 34.0973 123.908 34.1717 124.392 34.1717C125.393 34.1717 126.13 33.8587 126.6 33.235C127.07 32.6112 127.304 31.7598 127.304 30.6807C127.304 30.1488 127.239 29.6783 127.11 29.269C126.981 28.8597 126.773 28.4263 126.489 27.9689Z" fill="white"/>
<path d="M133.352 24.9414C133.352 25.9942 132.906 26.5195 132.016 26.5195H130.848V21.0236H132.016C132.906 21.0236 133.352 21.5511 133.352 22.6017V24.9414ZM132.145 19.3711H129.141V33.9108H130.846V28.172H132.145C133.035 28.172 133.741 27.9006 134.26 27.3556C134.78 26.8106 135.038 25.9701 135.038 24.8298V22.7133C135.038 21.5751 134.778 20.7325 134.26 20.1875C133.739 19.6425 133.035 19.3711 132.145 19.3711Z" fill="white"/>
<path d="M141.106 31.2388C141.106 31.6591 140.986 31.9786 140.745 32.1953C140.505 32.412 140.192 32.5192 139.809 32.5192C139.427 32.5192 139.114 32.412 138.871 32.1953C138.631 31.9786 138.511 31.6591 138.511 31.2388V22.0462C138.511 21.6259 138.631 21.3064 138.871 21.0897C139.112 20.873 139.425 20.7658 139.809 20.7658C140.194 20.7658 140.505 20.8752 140.745 21.0897C140.986 21.3064 141.106 21.6259 141.106 22.0462V31.2388ZM141.922 19.8925C141.648 19.6451 141.331 19.4525 140.966 19.3168C140.601 19.1811 140.214 19.1133 139.807 19.1133C139.401 19.1133 138.994 19.1811 138.629 19.3168C138.264 19.4525 137.949 19.6451 137.682 19.8925C137.415 20.1398 137.205 20.444 137.052 20.803C136.897 21.1619 136.82 21.5712 136.82 22.0287V31.2585C136.82 31.716 136.897 32.1253 137.052 32.4842C137.207 32.8432 137.417 33.1496 137.682 33.4035C137.949 33.6574 138.264 33.85 138.629 33.9791C138.994 34.1083 139.387 34.1739 139.807 34.1739C140.227 34.1739 140.601 34.1083 140.966 33.9791C141.331 33.85 141.648 33.6574 141.922 33.4035C142.193 33.1496 142.407 32.8432 142.563 32.4842C142.718 32.1253 142.794 31.716 142.794 31.2585V22.0287C142.794 21.5712 142.718 21.1619 142.563 20.803C142.407 20.444 142.195 20.1398 141.922 19.8925Z" fill="white"/>
<path d="M149.01 24.3461C149.01 24.8166 148.914 25.1537 148.724 25.3573C148.531 25.5608 148.181 25.6637 147.676 25.6637H146.526V20.9842H147.676C148.566 20.9842 149.012 21.4745 149.012 22.4506V24.3439L149.01 24.3461ZM149.66 26.3334C149.994 26.1846 150.246 25.9504 150.421 25.6287C150.593 25.3069 150.681 24.856 150.681 24.2738V22.2493C150.681 21.3453 150.425 20.6406 149.911 20.1328C149.397 19.625 148.695 19.3711 147.805 19.3711H144.855V33.9108H146.526V27.1323H147.788C148.308 27.1323 148.656 27.2286 148.835 27.4212C149.015 27.6138 149.104 27.9378 149.104 28.3974V33.913H150.792V28.4543C150.792 27.859 150.694 27.395 150.495 27.0623C150.296 26.7274 150.018 26.4866 149.66 26.3378" fill="white"/>
<path d="M152.016 21.0236H153.649V33.9108H155.355V21.0236H156.988V19.3711H152.016V21.0236Z" fill="white"/>
<path d="M163.184 27.9689C163.011 27.6975 162.805 27.3954 162.571 27.0693C162.335 26.741 162.093 26.4083 161.839 26.0669C161.585 25.7276 161.338 25.4015 161.098 25.0929C160.857 24.7843 160.656 24.5107 160.494 24.2765C160.247 23.9307 160.059 23.598 159.928 23.2828C159.799 22.9676 159.733 22.6306 159.733 22.2716C159.733 21.8382 159.84 21.4705 160.057 21.1663C160.273 20.8621 160.61 20.7111 161.067 20.7111C161.463 20.7111 161.773 20.8358 161.994 21.0831C162.217 21.3305 162.329 21.6653 162.329 22.0856V22.4752H163.905V21.9543C163.905 21.1006 163.658 20.4134 163.164 19.8925C162.67 19.3716 161.983 19.1133 161.104 19.1133C160.225 19.1133 159.499 19.3956 158.961 19.9581C158.423 20.5206 158.154 21.2867 158.154 22.2519C158.154 22.7225 158.231 23.215 158.386 23.7271C158.541 24.2415 158.828 24.8324 159.248 25.5C159.42 25.7714 159.615 26.0537 159.832 26.3448C160.048 26.6359 160.267 26.9227 160.49 27.2094C160.713 27.4939 160.925 27.7675 161.13 28.0258C161.334 28.2862 161.504 28.5204 161.64 28.7306C161.911 29.1508 162.101 29.536 162.206 29.8818C162.311 30.2276 162.364 30.5691 162.364 30.904C162.364 31.449 162.248 31.8692 162.02 32.1669C161.791 32.4645 161.441 32.6134 160.973 32.6134C160.54 32.6134 160.203 32.4842 159.963 32.2238C159.722 31.9633 159.602 31.6613 159.602 31.3132V30.9609L158.025 30.5516V31.3308C158.025 31.7269 158.095 32.099 158.238 32.4448C158.38 32.7928 158.581 33.0927 158.841 33.3444C159.101 33.5983 159.418 33.7996 159.797 33.9485C160.173 34.0973 160.603 34.1717 161.087 34.1717C162.088 34.1717 162.823 33.8587 163.293 33.235C163.763 32.6112 163.997 31.7598 163.997 30.6807C163.997 30.1488 163.932 29.6783 163.803 29.269C163.674 28.8597 163.466 28.4263 163.182 27.9689" fill="white"/>
<path d="M8.79297 8.80078L17.5834 17.5995L26.376 8.80078H8.79297Z" fill="#B7AAD3"/>
<path d="M0 17.5977L8.79259 26.3985L17.583 17.5977H0Z" fill="#8560A9"/>
<path d="M35.168 17.5977L43.9584 26.3985L52.751 17.5977H35.168Z" fill="white"/>
<path d="M43.959 26.4023L52.7516 35.2032L61.5442 26.4023H43.959Z" fill="#D3CAE1"/>
<path d="M26.375 8.80078L35.1676 17.5995L43.958 8.80078H26.375Z" fill="#AA8AB9"/>
<path d="M17.582 0L26.3746 8.80088L35.1672 0H17.582Z" fill="#D3CAE1"/>
<path d="M17.582 35.2031L26.3746 44.0018L35.1672 35.2031H17.582Z" fill="#8560A9"/>
<path d="M35.168 35.2031L43.9584 44.0018L52.751 35.2031H35.168Z" fill="white"/>
<path d="M52.752 35.2031L61.5424 44.0018L70.3349 35.2031H52.752Z" fill="white"/>
<path d="M17.582 17.5977L26.3746 26.3985L35.1672 17.5977H17.582Z" fill="#AA8AB9"/>
<path d="M52.751 35.2032L43.9584 26.4023L35.168 35.2032H52.751Z" fill="white"/>
<path d="M61.543 8.80078L70.3334 17.5995L79.1259 8.80078H61.543Z" fill="white"/>
<path d="M70.3349 17.5995L61.5445 8.80078L52.752 17.5995H70.3349Z" fill="#D3CAE1"/>
<path d="M105.503 17.5995L96.7103 8.80078L87.9199 17.5995H105.503Z" fill="white"/>
<path d="M61.5442 8.80088L52.7516 0L43.959 8.80088H61.5442Z" fill="#8560A9"/>
<path d="M61.5442 26.3985L52.7516 17.5977L43.959 26.3985H61.5442Z" fill="white"/>
<path d="M43.958 26.3985L35.1676 17.5977L26.375 26.3985H43.958Z" fill="#D3CAE1"/>
<path d="M52.752 17.5977L61.5445 26.3985L70.3349 17.5977H52.752Z" fill="white"/>
<path d="M79.1259 26.3985L70.3334 17.5977L61.543 26.3985H79.1259Z" fill="white"/>
<path d="M70.334 17.5977L79.1266 26.3985L87.9192 17.5977H70.334Z" fill="#B7AAD3"/>
<path d="M96.7099 26.3985L87.9195 17.5977L79.127 26.3985H96.7099Z" fill="white"/>
<path d="M87.9199 17.5977L96.7125 26.3985L105.503 17.5977H87.9199Z" fill="white"/>
<path d="M79.1259 8.80088L70.3334 0L61.543 8.80088H79.1259Z" fill="white"/>
<path d="M70.334 0L79.1266 8.80088L87.9192 0H70.334Z" fill="white"/>
<path d="M96.7099 8.80088L87.9195 0L79.127 8.80088H96.7099Z" fill="white"/>
<path d="M87.9199 0L96.7125 8.80088L105.503 0H87.9199Z" fill="white"/>
<path d="M17.583 35.2032L8.79259 26.4023L0 35.2032H17.583Z" fill="#AA8AB9"/>
<path d="M79.1262 44.0018L70.3336 35.2031L61.541 44.0018H79.1262Z" fill="white"/>
<path d="M61.5442 44.0018L52.7516 35.2031L43.959 44.0018H61.5442Z" fill="white"/>
<path d="M96.709 8.80078L105.502 17.5995L114.294 8.80078H96.709Z" fill="white"/>
<path d="M114.294 8.80088L105.502 0L96.709 8.80088H114.294Z" fill="#D3CAE1"/>
<path d="M35.1672 35.2032L26.3746 26.4023L17.582 35.2032H35.1672Z" fill="#AA8AB9"/>
<path d="M35.1672 17.5995L26.3746 8.80078L17.582 17.5995H35.1672Z" fill="#8560A9"/>
</g>
<defs>
<clipPath id="clip0_4095_164074">
<rect width="164" height="44" fill="white"/>
</clipPath>
</defs>
</svg>
