<svg width="24" height="24" viewBox="0 0 24 24" fill="none" xmlns="http://www.w3.org/2000/svg">
<g clip-path="url(#clip0_1978_21150)">
<path d="M21.2302 13.8677C19.9142 16.0637 16.9612 19.7498 12.0012 19.7498C11.0382 19.7498 10.0873 19.6037 9.1753 19.3147C8.7803 19.1897 8.56227 18.7688 8.68727 18.3738C8.81127 17.9778 9.23618 17.7618 9.62818 17.8848C10.3932 18.1268 11.1912 18.2498 12.0012 18.2498C16.2232 18.2498 18.7913 15.0198 19.9453 13.0938C20.3533 12.4178 20.3533 11.5808 19.9473 10.9068C19.6013 10.3238 19.1782 9.72773 18.7212 9.17873C18.4562 8.85973 18.5003 8.38683 18.8193 8.12283C19.1393 7.85783 19.6112 7.90175 19.8762 8.21975C20.3822 8.82875 20.8521 9.49174 21.2341 10.1367C21.9271 11.2837 21.9272 12.7157 21.2302 13.8677ZM10.0642 14.9978L3.53126 21.5308C3.38526 21.6768 3.19323 21.7508 3.00123 21.7508C2.80923 21.7508 2.6172 21.6778 2.4712 21.5308C2.1782 21.2378 2.1782 20.7627 2.4712 20.4697L5.64625 17.2947C4.31825 16.1497 3.35327 14.8367 2.77027 13.8657C2.07627 12.7157 2.07623 11.2838 2.77223 10.1328C4.08823 7.93684 7.04123 4.25076 12.0012 4.25076C13.8362 4.25076 15.5663 4.76969 17.1563 5.78469L20.4702 2.47073C20.7632 2.17773 21.2383 2.17773 21.5313 2.47073C21.8243 2.76373 21.8243 3.23876 21.5313 3.53176L10.0662 14.9969C10.0662 14.9969 10.0662 14.9978 10.0652 14.9978C10.0642 14.9978 10.0642 14.9968 10.0642 14.9978ZM9.61012 13.3308L13.3323 9.60867C12.9303 9.38167 12.4792 9.25076 12.0012 9.25076C10.4852 9.25076 9.25221 10.4838 9.25221 12.0008C9.25221 12.4778 9.38412 12.9288 9.61012 13.3308ZM6.70826 16.2317L8.52027 14.4197C8.02527 13.7167 7.75221 12.8818 7.75221 11.9988C7.75221 9.6558 9.65823 7.7488 12.0012 7.7488C12.8852 7.7488 13.7191 8.02187 14.4221 8.51687L16.0532 6.88577C14.7882 6.14477 13.4332 5.74783 12.0012 5.74783C7.77923 5.74783 5.21114 8.97783 4.05714 10.9038C3.64914 11.5798 3.64919 12.4168 4.05519 13.0908C4.59219 13.9878 5.48426 15.2007 6.70826 16.2317ZM14.7092 12.4348C14.5292 13.5948 13.5953 14.5298 12.4373 14.7088C12.0283 14.7718 11.7473 15.1547 11.8103 15.5637C11.8683 15.9347 12.1873 16.1997 12.5503 16.1997C12.5883 16.1997 12.6273 16.1967 12.6653 16.1907C14.4923 15.9087 15.9092 14.4918 16.1912 12.6638C16.2542 12.2538 15.9742 11.8719 15.5642 11.8079C15.1642 11.7469 14.7722 12.0248 14.7092 12.4348Z" fill="#C7C6C8"/>
</g>
<defs>
<clipPath id="clip0_1978_21150">
<rect width="24" height="24" fill="white"/>
</clipPath>
</defs>
</svg>
