<svg width="49" height="48" viewBox="0 0 49 48" fill="none" xmlns="http://www.w3.org/2000/svg">
<g id="Nafaz">
<g id="Google">
<g id="Group">
<g id="Group_2">
<path id="Vector" d="M32.6134 28.5055C32.703 28.5176 32.7568 28.5298 32.8105 28.5298C34.0831 28.5298 35.3617 28.5358 36.6343 28.5237C37.3931 28.5176 37.8292 28.1104 37.8531 27.3446C37.889 26.0682 37.889 24.7918 37.889 23.5154C37.889 23.2784 37.9547 23.1447 38.1698 23.0353C38.821 22.707 39.4543 22.3545 40.0996 22.0142C40.1772 21.9716 40.2609 21.9351 40.3684 21.8865C40.3744 21.9716 40.3864 22.0324 40.3864 22.0992C40.3864 23.8679 40.4162 25.6366 40.3744 27.4053C40.3445 28.7303 39.8128 29.8183 38.6358 30.5051C38.0324 30.8576 37.3632 30.9853 36.6821 30.9853C34.7642 30.9974 32.8524 30.9974 30.9345 30.9853C30.4446 30.9792 29.9547 30.8759 29.4648 30.8576C29.1362 30.8455 28.8076 30.9245 28.473 30.9427C27.9173 30.967 27.3557 30.9853 26.8001 30.9913C25.2288 30.9974 23.6574 31.0096 22.0861 30.9853C21.6201 30.9792 21.1362 30.9123 20.6881 30.7786C19.3318 30.3532 18.6029 29.3624 18.3699 27.9706C18.3221 27.6728 18.3102 27.3689 18.3102 27.065C18.3042 24.4818 18.3102 21.8987 18.3042 19.3155C18.3042 19.0967 18.358 18.9752 18.5551 18.8779C19.2123 18.5436 19.8576 18.1911 20.5088 17.8507C20.5865 17.8082 20.6701 17.7717 20.7956 17.7109C20.7956 17.8629 20.7956 17.9723 20.7956 18.0817C20.7956 20.9748 20.7956 23.874 20.7956 26.7671C20.7956 26.992 20.8076 27.223 20.8374 27.4479C20.9271 28.1225 21.2915 28.5115 21.9547 28.5237C23.3049 28.548 24.6492 28.5298 25.9995 28.5298C26.0234 28.5298 26.0533 28.5115 26.113 28.4933C26.0533 28.3717 25.9995 28.2563 25.9397 28.1468C24.9838 26.4572 25.2527 24.184 26.358 22.8468C27.0152 22.0445 27.8695 21.6069 28.8852 21.5158C29.9188 21.4246 30.9106 21.5705 31.759 22.2512C32.6791 22.9866 33.1511 23.9713 33.3005 25.1382C33.4558 26.2991 33.2467 27.3749 32.6552 28.3778C32.6492 28.396 32.6433 28.4325 32.6134 28.5055ZM30.9763 25.5819C30.9285 25.3874 30.8867 25.0228 30.7433 24.7067C30.4506 24.0624 29.9129 23.8011 29.2198 23.8376C28.5984 23.874 28.1504 24.1962 27.9353 24.7918C27.4931 25.9892 28.0249 27.5087 29.0943 28.1651C29.2855 28.2806 29.4409 28.2866 29.6261 28.159C30.4745 27.5877 30.9345 26.7915 30.9763 25.5819Z" fill="#0A9A8F"/>
<path id="Vector_2" d="M11.8577 23.7221C12.264 23.011 12.6703 22.3121 13.0825 21.5948C13.8891 22.0872 14.6061 22.6524 15.1796 23.3818C16.261 24.7432 16.6314 26.3114 16.4522 28.0314C16.4104 28.4508 16.3208 28.8763 16.1774 29.2713C15.8189 30.2803 15.0541 30.8699 14.0385 30.9185C12.2102 31.0036 10.382 30.9671 8.5478 30.9853C8.54182 30.9853 8.52987 30.9793 8.5 30.961C8.5239 30.9003 8.54182 30.8273 8.5717 30.7665C8.91225 30.098 9.26475 29.4294 9.59933 28.7547C9.68297 28.5906 9.77857 28.5298 9.96378 28.5298C10.8839 28.542 11.804 28.5055 12.724 28.542C13.8055 28.5845 14.0146 27.9281 13.9907 27.1441C13.9488 25.7096 13.2677 24.6582 12.1027 23.8984C12.037 23.8437 11.9593 23.789 11.8577 23.7221Z" fill="#0A9A8F"/>
<path id="Vector_3" d="M39.1915 17C39.9921 17 40.4999 17.5106 40.4999 18.3189C40.4999 19.1942 40.0578 19.6622 39.2154 19.6743C38.4148 19.6865 37.901 19.1638 37.895 18.3311C37.895 17.5227 38.3969 17 39.1915 17Z" fill="#0A9A8F"/>
<path id="Vector_4" d="M14.3909 18.3311C14.3909 19.2306 13.9547 19.6865 13.1063 19.6743C12.2998 19.6622 11.7919 19.1273 11.7979 18.3068C11.8099 17.5045 12.3237 17 13.1302 17C13.9189 17.0061 14.3909 17.5045 14.3909 18.3311Z" fill="#0A9A8F"/>
<path id="Vector_5" d="M30.6357 18.6165C30.6297 19.51 30.2294 19.9294 29.3631 19.9294C28.5327 19.9294 28.0547 19.437 28.0547 18.5861C28.0547 17.7534 28.5506 17.2733 29.393 17.2794C30.1876 17.2854 30.6357 17.7777 30.6357 18.6165Z" fill="#0A9A8F"/>
</g>
</g>
</g>
</g>
</svg>
