<svg width="181" height="48" viewBox="0 0 181 48" fill="none" xmlns="http://www.w3.org/2000/svg">
<g id="Layer_1" clip-path="url(#clip0_953_29952)">
<g id="Group">
<path id="Vector" d="M10.5625 9.6001L20.1625 19.2001L29.7625 9.6001H10.5625Z" fill="#78A3BF"/>
<path id="Vector_2" d="M0.960938 19.2L10.5609 28.8L20.1609 19.2H0.960938Z" fill="#3F82A4"/>
<path id="Vector_3" d="M39.3594 19.2L48.9594 28.8L58.5594 19.2H39.3594Z" fill="#662483"/>
<path id="Vector_4" d="M48.9609 28.8L58.5609 38.4L68.1609 28.8H48.9609Z" fill="#4E699C"/>
<path id="Vector_5" d="M29.7617 9.6001L39.3617 19.2001L48.9617 9.6001H29.7617Z" fill="#6C7EAC"/>
<path id="Vector_6" d="M20.1602 0L29.7602 9.6L39.3602 0H20.1602Z" fill="#643A86"/>
<path id="Vector_7" d="M20.1602 38.3999L29.7602 47.9999L39.3602 38.3999H20.1602Z" fill="#98C6BD"/>
<path id="Vector_8" d="M39.3594 38.3999L48.9594 47.9999L58.5594 38.3999H39.3594Z" fill="#662483"/>
<path id="Vector_9" d="M58.5625 38.3999L68.1625 47.9999L77.7625 38.3999H58.5625Z" fill="#662483"/>
<path id="Vector_10" d="M20.1602 19.2L29.7602 28.8L39.3602 19.2H20.1602Z" fill="#4E699C"/>
<path id="Vector_11" d="M58.5594 38.4L48.9594 28.8L39.3594 38.4H58.5594Z" fill="#662483"/>
<path id="Vector_12" d="M68.1602 9.6001L77.7602 19.2001L87.3602 9.6001H68.1602Z" fill="#662483"/>
<path id="Vector_13" d="M77.7625 19.2001L68.1625 9.6001L58.5625 19.2001H77.7625Z" fill="#646CA3"/>
<path id="Vector_14" d="M116.161 19.2001L106.561 9.6001L96.9609 19.2001H116.161Z" fill="#662483"/>
<path id="Vector_15" d="M68.1609 9.6L58.5609 0L48.9609 9.6H68.1609Z" fill="#74BDB8"/>
<path id="Vector_16" d="M68.1609 28.8L58.5609 19.2L48.9609 28.8H68.1609Z" fill="#662483"/>
<path id="Vector_17" d="M48.9617 28.8L39.3617 19.2L29.7617 28.8H48.9617Z" fill="#8A6BA7"/>
<path id="Vector_18" d="M58.5625 19.2L68.1625 28.8L77.7625 19.2H58.5625Z" fill="#662483"/>
<path id="Vector_19" d="M87.3602 28.8L77.7602 19.2L68.1602 28.8H87.3602Z" fill="#662483"/>
<path id="Vector_20" d="M77.7617 19.2L87.3617 28.8L96.9617 19.2H77.7617Z" fill="#5F5991"/>
<path id="Vector_21" d="M106.559 28.8L96.9594 19.2L87.3594 28.8H106.559Z" fill="#662483"/>
<path id="Vector_22" d="M96.9609 19.2L106.56 28.8L116.16 19.2H96.9609Z" fill="#662483"/>
<path id="Vector_23" d="M87.3602 9.6L77.7602 0L68.1602 9.6H87.3602Z" fill="#662483"/>
<path id="Vector_24" d="M77.7617 0L87.3617 9.6L96.9617 0H77.7617Z" fill="#662483"/>
<path id="Vector_25" d="M106.559 9.6L96.9594 0L87.3594 9.6H106.559Z" fill="#662483"/>
<path id="Vector_26" d="M96.9609 0L106.56 9.6L116.16 0H96.9609Z" fill="#662483"/>
<path id="Vector_27" d="M20.1609 38.4L10.5609 28.8L0.960938 38.4H20.1609Z" fill="#74BDB8"/>
<path id="Vector_28" d="M87.359 47.9999L77.7602 38.3999L68.1602 47.9999H87.359Z" fill="#662483"/>
<path id="Vector_29" d="M68.1609 47.9999L58.5609 38.3999L48.9609 47.9999H68.1609Z" fill="#662483"/>
<path id="Vector_30" d="M106.562 9.6001L116.163 19.2001L125.762 9.6001H106.562Z" fill="#662483"/>
<path id="Vector_31" d="M125.762 9.6L116.163 0L106.562 9.6H125.762Z" fill="#7892B6"/>
<path id="Vector_32" d="M39.3602 38.4L29.7602 28.8L20.1602 38.4H39.3602Z" fill="#3FAEA8"/>
<path id="Vector_33" d="M39.3602 19.2001L29.7602 9.6001L20.1602 19.2001H39.3602Z" fill="#98C6BD"/>
</g>
<g id="Group_2">
<g id="Group_3">
<path id="Vector_34" d="M105.832 43.9812H108.419V44.6632H106.658V45.7228H108.266V46.377H106.658V47.9321H105.832V43.9823V43.9812Z" fill="white"/>
<path id="Vector_35" d="M113.48 43.9812H116.097V44.6632H114.307V45.6106H115.995V46.2593H114.307V47.2501H116.097V47.9321H113.48V43.9823V43.9812Z" fill="white"/>
<path id="Vector_36" d="M121.266 43.9812H122.774C123.169 43.9812 123.508 44.0567 123.788 44.2089C124.068 44.3611 124.283 44.5821 124.432 44.8731C124.582 45.1641 124.657 45.5184 124.657 45.9361V45.9416C124.657 46.3593 124.582 46.7169 124.433 47.0146C124.285 47.3123 124.07 47.5389 123.789 47.6955C123.508 47.8521 123.169 47.9309 122.774 47.9309H121.266V43.9812ZM122.675 47.2467C122.922 47.2467 123.129 47.1979 123.298 47.099C123.467 47.0002 123.595 46.8546 123.683 46.6614C123.77 46.4681 123.814 46.2293 123.814 45.9439V45.9383C123.814 45.6651 123.769 45.4329 123.679 45.243C123.589 45.053 123.46 44.9098 123.29 44.812C123.121 44.7143 122.915 44.6654 122.674 44.6654H122.091V47.2467H122.674H122.675Z" fill="white"/>
<path id="Vector_37" d="M129.766 43.9812H132.382V44.6632H130.592V45.6106H132.28V46.2593H130.592V47.2501H132.382V47.9321H129.766V43.9823V43.9812Z" fill="white"/>
<path id="Vector_38" d="M137.555 43.9812H139.186C139.482 43.9812 139.735 44.0312 139.946 44.1334C140.157 44.2344 140.318 44.3788 140.43 44.5677C140.543 44.7554 140.599 44.982 140.599 45.2463V45.2519C140.599 45.5129 140.535 45.7439 140.406 45.9461C140.277 46.1482 140.104 46.2915 139.885 46.377L140.717 47.9321H139.778L139.044 46.5037H138.382V47.9321H137.556V43.9823L137.555 43.9812ZM139.095 45.8728C139.3 45.8728 139.46 45.8183 139.577 45.7084C139.694 45.5995 139.753 45.4474 139.753 45.2541V45.2485C139.753 45.0586 139.692 44.9087 139.571 44.7965C139.45 44.6854 139.287 44.6299 139.085 44.6299H138.382V45.8728H139.096H139.095Z" fill="white"/>
<path id="Vector_39" d="M146.837 43.9812H147.808L149.182 47.9309H148.312L147.332 44.7476H147.315L146.332 47.9309H145.465L146.835 43.9812H146.837ZM146.292 46.3537H148.339V46.9724H146.292V46.3537Z" fill="white"/>
<path id="Vector_40" d="M154.566 44.6632H153.422V43.9812H156.536V44.6632H155.392V47.9309H154.566V44.6632Z" fill="white"/>
<path id="Vector_41" d="M161.57 43.9812H162.397V47.9309H161.57V43.9812Z" fill="white"/>
<path id="Vector_42" d="M168.393 47.7521C168.108 47.5866 167.887 47.3523 167.732 47.0457C167.577 46.7403 167.5 46.3771 167.5 45.9572V45.9516C167.5 45.5318 167.578 45.1697 167.734 44.8654C167.891 44.561 168.111 44.3255 168.396 44.16C168.682 43.9945 169.019 43.9124 169.408 43.9124C169.797 43.9124 170.136 43.9957 170.421 44.1612C170.707 44.3278 170.925 44.5621 171.081 44.8665C171.236 45.1697 171.314 45.5318 171.314 45.9516V45.9572C171.314 46.3771 171.236 46.7392 171.081 47.0435C170.925 47.3478 170.707 47.5833 170.423 47.7499C170.139 47.9165 169.801 47.9987 169.409 47.9987C169.017 47.9987 168.681 47.9165 168.395 47.751L168.393 47.7521ZM169.972 47.1335C170.13 47.0235 170.252 46.868 170.338 46.667C170.423 46.4659 170.467 46.2304 170.467 45.9583V45.9528C170.467 45.6795 170.423 45.4418 170.337 45.2408C170.25 45.0397 170.128 44.8853 169.969 44.7765C169.81 44.6676 169.624 44.6132 169.408 44.6132C169.193 44.6132 169.005 44.6676 168.846 44.7765C168.687 44.8853 168.563 45.0397 168.476 45.2386C168.39 45.4385 168.346 45.6762 168.346 45.9516V45.9572C168.346 46.2304 168.39 46.4681 168.476 46.6692C168.563 46.8702 168.686 47.0246 168.845 47.1346C169.004 47.2445 169.192 47.299 169.409 47.299C169.627 47.299 169.817 47.2434 169.975 47.1335H169.972Z" fill="white"/>
<path id="Vector_43" d="M176.418 43.9812H177.141L179.287 47.0712L178.595 46.5481H178.943V43.9812H179.767V47.9309H179.049L176.898 44.8242L177.591 45.3474H177.243V47.9309H176.419V43.9812H176.418Z" fill="white"/>
</g>
<path id="Vector_44" d="M146.217 5.0337C146.386 5.59461 146.7 6.23883 147.159 6.96858C147.348 7.26626 147.561 7.57282 147.796 7.89048C148.033 8.20815 148.273 8.52138 148.516 8.83238C148.759 9.14338 148.993 9.43995 149.215 9.72318C149.438 10.0064 149.623 10.263 149.771 10.4929C150.068 10.9528 150.274 11.3704 150.389 11.7491C150.503 12.1279 150.561 12.4989 150.561 12.8632C150.561 13.4574 150.435 13.9162 150.185 14.2405C149.936 14.5648 149.555 14.727 149.041 14.727C148.568 14.727 148.201 14.5848 147.937 14.3016C147.674 14.0184 147.542 13.6874 147.542 13.3086V12.9232L145.82 12.4778V13.3286C145.82 13.7607 145.898 14.1661 146.054 14.5437C146.209 14.9225 146.429 15.2501 146.712 15.5267C146.995 15.8033 147.343 16.0232 147.755 16.1854C148.167 16.3475 148.637 16.4286 149.164 16.4286C150.258 16.4286 151.061 16.0876 151.574 15.4057C152.087 14.7237 152.344 13.7951 152.344 12.62C152.344 12.039 152.273 11.5259 152.13 11.0805C151.988 10.6351 151.763 10.1619 151.452 9.66209C151.263 9.36553 151.04 9.03786 150.783 8.6791C150.526 8.32145 150.26 7.95713 149.983 7.58503C149.707 7.21405 149.437 6.85862 149.172 6.52096C148.909 6.1833 148.689 5.88673 148.514 5.63016C148.244 5.25251 148.037 4.89041 147.896 4.54609C147.754 4.20176 147.683 3.83411 147.683 3.44203C147.683 2.96997 147.801 2.56789 148.037 2.23689C148.274 1.90589 148.642 1.7404 149.141 1.7404C149.573 1.7404 149.911 1.87591 150.154 2.14581C150.398 2.41572 150.519 2.78115 150.519 3.23988V3.66528H152.24V3.0977C152.24 2.1658 151.97 1.41606 151.429 0.849595C150.89 0.282014 150.14 -0.0012207 149.18 -0.0012207C149.098 -0.0012207 149.02 0.00433292 148.941 0.00877583L145.981 2.96886C145.968 3.11547 145.96 3.26542 145.96 3.42204C145.96 3.93519 146.045 4.47278 146.214 5.03259L146.217 5.0337Z" fill="white"/>
<path id="Vector_45" d="M157.564 0H155.818L153.043 16.4287H154.846L155.243 13.8563H158.201L158.615 16.4287H160.418L157.564 0ZM155.487 12.2968L156.702 4.35515L157.958 12.2968H155.487Z" fill="white"/>
<path id="Vector_46" d="M168.144 13.2487V0H166.322V13.2287C166.322 13.6886 166.19 14.0362 165.926 14.2717C165.663 14.5083 165.315 14.626 164.883 14.626C164.478 14.626 164.144 14.5083 163.88 14.2717C163.617 14.0351 163.485 13.6875 163.485 13.2287V0H161.621V13.2487C161.621 13.7486 161.706 14.194 161.874 14.586C162.043 14.9781 162.272 15.3125 162.563 15.589C162.853 15.8656 163.194 16.0755 163.586 16.2166C163.977 16.3588 164.402 16.4287 164.862 16.4287C165.322 16.4287 165.75 16.3577 166.148 16.2166C166.547 16.0744 166.895 15.8656 167.191 15.589C167.488 15.3125 167.721 14.9781 167.89 14.586C168.059 14.1951 168.143 13.7486 168.143 13.2487H168.144Z" fill="white"/>
<path id="Vector_47" d="M176.411 12.7822V3.64651C176.411 2.40472 176.128 1.48615 175.56 0.891913C174.993 0.297674 174.223 0 173.251 0H169.969V16.4287H173.251C174.223 16.4287 174.994 16.1322 175.56 15.5379C176.128 14.9437 176.411 14.0251 176.411 12.7833V12.7822ZM174.567 12.9033C174.567 14.0518 174.081 14.6249 173.109 14.6249H171.833V1.80271H173.109C174.081 1.80271 174.567 2.37695 174.567 3.52433V12.9033Z" fill="white"/>
<path id="Vector_48" d="M180.036 0H178.172V16.4287H180.036V0Z" fill="white"/>
<path id="Vector_49" d="M131.863 36.9925V35.1898H128.481V29.7206H130.871V27.9179H128.481V22.9341H131.863V21.1313H128.661L126.617 23.1751V36.9925H131.863Z" fill="white"/>
<path id="Vector_50" d="M139.074 30.5105C138.884 30.2139 138.662 29.8863 138.405 29.5275C138.149 29.1698 137.882 28.8055 137.606 28.4334C137.329 28.0624 137.059 27.707 136.795 27.3693C136.531 27.0317 136.312 26.7351 136.136 26.4785C135.866 26.1009 135.661 25.7388 135.518 25.3945C135.376 25.0502 135.306 24.6825 135.306 24.2904C135.306 23.8184 135.424 23.4163 135.661 23.0853C135.897 22.7543 136.265 22.5888 136.765 22.5888C137.197 22.5888 137.534 22.7243 137.778 22.9942C138.021 23.2641 138.142 23.6295 138.142 24.0883V24.5137H139.864V23.9461C139.864 23.0142 139.594 22.2645 139.053 21.698C138.512 21.1304 137.763 20.8472 136.805 20.8472C135.846 20.8472 135.052 21.1548 134.464 21.7691C133.877 22.3833 133.584 23.2175 133.584 24.2704C133.584 24.7836 133.668 25.3212 133.837 25.881C134.006 26.4419 134.32 27.0861 134.779 27.8159C134.968 28.1135 135.181 28.4201 135.417 28.7378C135.654 29.0554 135.893 29.3687 136.136 29.6797C136.379 29.9907 136.613 30.2872 136.836 30.5705C137.058 30.8537 137.245 31.1103 137.392 31.3402C137.689 31.8 137.895 32.2177 138.01 32.5964C138.124 32.9752 138.182 33.3462 138.182 33.7105C138.182 34.3047 138.058 34.7634 137.808 35.0878C137.558 35.4121 137.176 35.5743 136.663 35.5743C136.189 35.5743 135.822 35.4321 135.558 35.1489C135.295 34.8656 135.163 34.5346 135.163 34.1559V33.7705L133.441 33.3251V34.1759C133.441 34.6079 133.519 35.0134 133.675 35.391C133.83 35.7698 134.049 36.0974 134.333 36.374C134.617 36.6506 134.964 36.8705 135.376 37.0327C135.788 37.1948 136.257 37.2759 136.785 37.2759C137.879 37.2759 138.682 36.9349 139.195 36.2529C139.708 35.5709 139.965 34.6424 139.965 33.4672C139.965 32.8863 139.894 32.3732 139.751 31.9278C139.609 31.4824 139.384 31.0092 139.073 30.5094L139.074 30.5105Z" fill="white"/>
<path id="Vector_51" d="M145.254 21.1313H141.973V36.9936H143.836V30.7336H145.255C146.227 30.7336 146.998 30.437 147.564 29.8428C148.132 29.2485 148.415 28.33 148.415 27.0882V24.779C148.415 23.5372 148.132 22.6186 147.564 22.0244C146.996 21.4301 146.227 21.1325 145.255 21.1325L145.254 21.1313ZM146.571 27.2092C146.571 28.3577 146.085 28.9309 145.113 28.9309H143.836V22.9341H145.113C146.085 22.9341 146.571 23.5083 146.571 24.6557V27.2081V27.2092Z" fill="white"/>
<path id="Vector_52" d="M155.93 21.6979C155.632 21.428 155.284 21.218 154.887 21.0692C154.488 20.9204 154.066 20.8459 153.62 20.8459C153.175 20.8459 152.732 20.9204 152.334 21.0692C151.935 21.218 151.591 21.4269 151.301 21.6979C151.01 21.9678 150.781 22.2988 150.613 22.6909C150.444 23.0829 150.359 23.5284 150.359 24.0282V34.0969C150.359 34.5967 150.444 35.0421 150.613 35.4342C150.781 35.8263 151.011 36.1606 151.301 36.4372C151.592 36.7138 151.935 36.9237 152.334 37.0648C152.733 37.2069 153.162 37.2769 153.62 37.2769C154.079 37.2769 154.488 37.2058 154.887 37.0648C155.284 36.9226 155.633 36.7138 155.93 36.4372C156.226 36.1606 156.459 35.8263 156.628 35.4342C156.797 35.0432 156.882 34.5967 156.882 34.0969V24.0282C156.882 23.5284 156.797 23.0829 156.628 22.6909C156.459 22.2988 156.226 21.9689 155.93 21.6979ZM155.038 34.0758C155.038 34.5356 154.906 34.8833 154.642 35.1188C154.379 35.3554 154.038 35.4731 153.619 35.4731C153.201 35.4731 152.86 35.3554 152.596 35.1188C152.333 34.8822 152.202 34.5345 152.202 34.0758V24.0482C152.202 23.5894 152.333 23.2418 152.596 23.0052C152.86 22.7686 153.201 22.6509 153.619 22.6509C154.038 22.6509 154.379 22.7697 154.642 23.0052C154.906 23.2418 155.038 23.5894 155.038 24.0482V34.0758Z" fill="white"/>
<path id="Vector_53" d="M164.376 28.7276C164.74 28.5654 165.017 28.3089 165.207 27.9579C165.396 27.6069 165.49 27.1137 165.49 26.4795V24.2714C165.49 23.2862 165.21 22.5164 164.649 21.9622C164.088 21.409 163.322 21.1313 162.35 21.1313H159.129V36.9936H160.952V29.5995H162.329C162.896 29.5995 163.277 29.7039 163.474 29.9139C163.67 30.1238 163.767 30.4781 163.767 30.9779V36.9947H165.611V31.039C165.611 30.3904 165.503 29.8839 165.287 29.5195C165.07 29.1552 164.767 28.892 164.375 28.7298L164.376 28.7276ZM163.667 26.5606C163.667 27.0737 163.563 27.4414 163.353 27.6646C163.143 27.8879 162.762 27.999 162.208 27.999H160.952V22.8941H162.208C163.18 22.8941 163.666 23.4272 163.666 24.4946V26.5606H163.667Z" fill="white"/>
<path id="Vector_54" d="M166.949 22.9341H168.732V36.9925H170.596V22.9341H172.378V21.1313H166.949V22.9341Z" fill="white"/>
<path id="Vector_55" d="M179.144 30.5105C178.955 30.2139 178.732 29.8863 178.475 29.5275C178.218 29.1698 177.952 28.8055 177.675 28.4334C177.399 28.0624 177.129 27.707 176.864 27.3693C176.601 27.0317 176.381 26.7351 176.206 26.4785C175.936 26.1009 175.729 25.7388 175.588 25.3945C175.446 25.0502 175.375 24.6825 175.375 24.2904C175.375 23.8184 175.493 23.4163 175.729 23.0853C175.966 22.7543 176.334 22.5888 176.833 22.5888C177.265 22.5888 177.603 22.7243 177.846 22.9942C178.09 23.2641 178.211 23.6295 178.211 24.0883V24.5137H179.932V23.9461C179.932 23.0142 179.662 22.2645 179.121 21.698C178.582 21.1304 177.832 20.8472 176.872 20.8472C175.913 20.8472 175.119 21.1548 174.533 21.7691C173.945 22.3833 173.651 23.2175 173.651 24.2704C173.651 24.7836 173.736 25.3212 173.904 25.881C174.073 26.4419 174.388 27.0861 174.846 27.8159C175.035 28.1135 175.248 28.4201 175.484 28.7378C175.72 29.0554 175.96 29.3687 176.204 29.6797C176.447 29.9907 176.68 30.2872 176.902 30.5705C177.125 30.8537 177.311 31.1103 177.459 31.3402C177.755 31.8 177.962 32.2177 178.076 32.5964C178.191 32.9752 178.248 33.3462 178.248 33.7105C178.248 34.3047 178.123 34.7634 177.873 35.0878C177.623 35.4121 177.242 35.5743 176.729 35.5743C176.256 35.5743 175.888 35.4321 175.625 35.1489C175.362 34.8656 175.229 34.5346 175.229 34.1559V33.7705L173.508 33.3251V34.1759C173.508 34.6079 173.586 35.0134 173.741 35.391C173.897 35.7698 174.116 36.0974 174.4 36.374C174.683 36.6506 175.031 36.8705 175.443 37.0327C175.855 37.1948 176.325 37.2759 176.851 37.2759C177.945 37.2759 178.748 36.9349 179.261 36.2529C179.775 35.5709 180.031 34.6424 180.031 33.4672C180.031 32.8863 179.96 32.3732 179.818 31.9278C179.676 31.4824 179.45 31.0092 179.139 30.5094L179.144 30.5105Z" fill="white"/>
</g>
</g>
<defs>
<clipPath id="clip0_953_29952">
<rect width="179.074" height="48" fill="white" transform="translate(0.960938)"/>
</clipPath>
</defs>
</svg>
