<svg width="219" height="51" viewBox="0 0 219 51" fill="none" xmlns="http://www.w3.org/2000/svg">
<g id="Group 238">
<path id="Vector" d="M52.8765 12.4064H57.9159V36.8196H52.8765V12.4064Z" fill="white"/>
<path id="Vector_2" d="M60.7337 28.4564C60.7337 26.6999 61.2523 24.9831 62.2236 23.5233C63.1949 22.0636 64.5752 20.9268 66.1896 20.257C67.804 19.5871 69.5798 19.4145 71.2919 19.7609C73.004 20.1072 74.5753 20.957 75.8066 22.2026C77.0379 23.4481 77.8739 25.0333 78.2084 26.7572C78.543 28.4812 78.3612 30.2662 77.6859 31.886C77.0107 33.5059 75.8725 34.8876 74.4156 35.8561C72.9587 36.8246 71.2487 37.3363 69.5024 37.3263C68.3441 37.3354 67.1956 37.1118 66.1244 36.6686C65.0531 36.2254 64.0806 35.5716 63.2639 34.7455C62.4472 33.9193 61.8027 32.9375 61.3682 31.8576C60.9337 30.7776 60.718 29.6213 60.7337 28.4564ZM73.3659 28.4564C73.3461 27.6992 73.1048 26.9646 72.6721 26.3446C72.2393 25.7246 71.6345 25.2467 70.9331 24.9707C70.2318 24.6946 69.4651 24.6326 68.7289 24.7925C67.9927 24.9524 67.3197 25.327 66.7941 25.8695C66.2685 26.4121 65.9136 27.0984 65.7738 27.8428C65.6341 28.5871 65.7156 29.3564 66.0082 30.0543C66.3008 30.7523 66.7915 31.3481 67.419 31.767C68.0465 32.186 68.7828 32.4096 69.536 32.4098C70.0487 32.4199 70.5581 32.3234 71.0321 32.1265C71.5062 31.9296 71.9347 31.6365 72.291 31.2655C72.6473 30.8944 72.9237 30.4535 73.1029 29.9701C73.282 29.4868 73.3602 28.9715 73.3323 28.4564H73.3659Z" fill="white"/>
<path id="Vector_3" d="M98.2144 20.0929V35.9911C98.2144 41.6003 93.8469 43.9824 89.429 43.9824C87.8707 44.1111 86.3076 43.7997 84.9157 43.0833C83.5238 42.367 82.3584 41.2741 81.5506 39.9277L85.8005 37.461C86.1449 38.1593 86.6928 38.7356 87.371 39.1129C88.0493 39.4901 88.8257 39.6506 89.5969 39.5729C90.0882 39.6337 90.5868 39.5847 91.0571 39.4292C91.5273 39.2737 91.9576 39.0156 92.3171 38.6734C92.6766 38.3311 92.9565 37.9132 93.1368 37.4496C93.317 36.9859 93.3931 36.4878 93.3597 35.9911V34.4537C92.7733 35.1688 92.0292 35.7366 91.1865 36.112C90.3438 36.4874 89.4257 36.66 88.505 36.6162C86.2775 36.6162 84.1411 35.7262 82.566 34.142C80.9909 32.5578 80.106 30.4092 80.106 28.1687C80.106 25.9283 80.9909 23.7797 82.566 22.1955C84.1411 20.6113 86.2775 19.7213 88.505 19.7213C89.4257 19.6775 90.3438 19.8501 91.1865 20.2255C92.0292 20.6009 92.7733 21.1687 93.3597 21.8838V20.1943L98.2144 20.0929ZM93.3597 28.1181C93.3932 27.3098 93.1856 26.5098 92.7634 25.8212C92.3413 25.1325 91.724 24.5866 90.9909 24.2537C90.2578 23.9207 89.4425 23.8159 88.6497 23.9527C87.8569 24.0896 87.123 24.4618 86.5422 25.0216C85.9615 25.5814 85.5605 26.303 85.3908 27.0939C85.2211 27.8847 85.2906 28.7084 85.5901 29.4592C85.8897 30.2101 86.4057 30.8536 87.0719 31.307C87.738 31.7605 88.5238 32.0032 89.3282 32.0039C89.853 32.0419 90.38 31.9688 90.875 31.7893C91.37 31.6097 91.8221 31.3278 92.2021 30.9616C92.582 30.5954 92.8813 30.1531 93.0807 29.6633C93.2801 29.1735 93.3752 28.6471 93.3597 28.1181Z" fill="white"/>
<path id="Vector_4" d="M101.051 28.4565C101.051 26.7015 101.569 24.9859 102.538 23.5269C103.508 22.0679 104.886 20.9311 106.499 20.2602C108.111 19.5894 109.885 19.4147 111.597 19.7583C113.308 20.102 114.879 20.9484 116.112 22.1906C117.345 23.4327 118.183 25.0148 118.522 26.7365C118.86 28.4582 118.683 30.2421 118.013 31.8626C117.343 33.4831 116.21 34.8672 114.757 35.8398C113.305 36.8124 111.598 37.3297 109.853 37.3264C108.693 37.3377 107.542 37.1159 106.467 36.6739C105.393 36.232 104.418 35.5788 103.598 34.7527C102.778 33.9265 102.131 32.9441 101.693 31.8629C101.256 30.7818 101.037 29.6237 101.051 28.4565ZM113.683 28.4565C113.663 27.6986 113.421 26.9634 112.988 26.343C112.555 25.7227 111.949 25.2448 111.246 24.9693C110.544 24.6937 109.777 24.6327 109.04 24.794C108.303 24.9553 107.63 25.3316 107.105 25.8758C106.581 26.42 106.227 27.1079 106.089 27.8533C105.951 28.5987 106.035 29.3685 106.33 30.0662C106.625 30.7639 107.119 31.3584 107.748 31.7753C108.378 32.1922 109.116 32.413 109.87 32.4099C110.383 32.42 110.892 32.3236 111.366 32.1267C111.84 31.9298 112.269 31.6366 112.625 31.2656C112.981 30.8946 113.258 30.4536 113.437 29.9702C113.616 29.4869 113.694 28.9716 113.666 28.4565H113.683Z" fill="white"/>
<path id="Vector_5" d="M120.992 15.6166C120.992 15.0218 121.168 14.4403 121.496 13.9458C121.825 13.4512 122.292 13.0658 122.838 12.8382C123.384 12.6106 123.986 12.551 124.566 12.667C125.146 12.7831 125.678 13.0695 126.097 13.4901C126.515 13.9107 126.8 14.4465 126.915 15.0299C127.03 15.6132 126.971 16.2179 126.745 16.7674C126.518 17.3169 126.135 17.7866 125.643 18.117C125.152 18.4475 124.574 18.6239 123.982 18.6239C123.192 18.6151 122.436 18.2954 121.878 17.7333C121.319 17.1712 121.001 16.4114 120.992 15.6166ZM121.479 20.0937H126.519V36.8198H121.479V20.0937Z" fill="white"/>
<path id="Vector_6" d="M148.081 28.4566C148.138 29.569 147.975 30.6816 147.602 31.7305C147.23 32.7793 146.654 33.7437 145.91 34.5681C145.165 35.3924 144.265 36.0606 143.263 36.534C142.261 37.0074 141.175 37.2767 140.069 37.3265C139.13 37.3893 138.189 37.2381 137.316 36.8841C136.444 36.5301 135.662 35.9825 135.029 35.2822V43.5438H129.99V20.0936H135.029V21.6648C135.663 20.9666 136.445 20.4215 137.318 20.0704C138.191 19.7193 139.131 19.5713 140.069 19.6374C141.171 19.6873 142.252 19.955 143.251 20.4253C144.25 20.8955 145.147 21.559 145.891 22.3779C146.635 23.1969 147.212 24.1552 147.587 25.1982C147.963 26.2412 148.131 27.3484 148.081 28.4566ZM143.042 28.4566C143.022 27.6719 142.772 26.9106 142.324 26.268C141.876 25.6255 141.249 25.1302 140.522 24.8445C139.795 24.5587 139.001 24.495 138.238 24.6615C137.475 24.828 136.778 25.2172 136.235 25.7803C135.691 26.3434 135.325 27.0554 135.182 27.8271C135.039 28.5987 135.125 29.3957 135.43 30.118C135.736 30.8404 136.246 31.4561 136.898 31.8878C137.55 32.3196 138.314 32.5483 139.094 32.5452C139.629 32.568 140.162 32.4769 140.659 32.2779C141.156 32.0789 141.606 31.7764 141.979 31.3904C142.352 31.0043 142.639 30.5434 142.822 30.0378C143.005 29.5322 143.08 28.9934 143.042 28.4566Z" fill="white"/>
<path id="Vector_7" d="M163.422 31.8017C163.422 35.6538 160.062 37.2926 156.501 37.2926C155.048 37.4241 153.59 37.1144 152.314 36.4037C151.039 35.6929 150.004 34.6136 149.345 33.3054L153.679 30.8387C153.85 31.4416 154.223 31.9668 154.733 32.3267C155.244 32.6865 155.862 32.859 156.484 32.8154C157.677 32.8154 158.281 32.4437 158.281 31.7679C158.281 29.9264 150.101 30.9063 150.101 25.1113C150.101 21.462 153.158 19.6373 156.618 19.6373C157.934 19.5781 159.24 19.8783 160.4 20.5059C161.559 21.1336 162.528 22.0653 163.203 23.2022L158.869 25.4999C158.678 25.064 158.365 24.6933 157.968 24.4324C157.572 24.1716 157.109 24.0318 156.635 24.03C155.762 24.03 155.241 24.3679 155.241 24.9593C155.241 26.8853 163.422 25.6182 163.422 31.8017Z" fill="white"/>
<path id="Vector_8" d="M181.683 20.0936V36.8197H176.644V35.2484C176.071 35.9439 175.344 36.4943 174.521 36.8553C173.698 37.2163 172.803 37.3777 171.906 37.3265C168.547 37.3265 165.674 34.9105 165.674 30.3996V20.0936H170.714V29.6393C170.674 30.0384 170.721 30.4413 170.852 30.8204C170.982 31.1994 171.192 31.5454 171.469 31.8346C171.745 32.1237 172.081 32.3491 172.452 32.4951C172.823 32.6412 173.222 32.7044 173.62 32.6804C175.434 32.6804 176.711 31.5991 176.711 29.3014V20.0936H181.683Z" fill="white"/>
<path id="Vector_9" d="M210.241 26.5478V36.82H205.201V26.9871C205.201 25.2976 204.412 24.2501 202.816 24.2501C201.22 24.2501 200.212 25.4159 200.212 27.3926V36.82H195.173V26.9871C195.173 25.2976 194.383 24.2501 192.787 24.2501C191.191 24.2501 190.183 25.4159 190.183 27.3926V36.82H185.144V20.094H190.183V21.6314C190.705 20.9522 191.387 20.4143 192.167 20.0662C192.947 19.7182 193.801 19.5709 194.652 19.6378C195.504 19.5931 196.353 19.7721 197.116 20.1571C197.879 20.5422 198.529 21.1201 199.003 21.8342C199.556 21.0881 200.289 20.4954 201.132 20.1113C201.975 19.7272 202.901 19.5643 203.824 19.6378C207.754 19.6378 210.241 22.3748 210.241 26.5478Z" fill="white"/>
<path id="Vector_10" d="M22.8567 8.01374V0.833374H0.347168V50.1667H22.8567V42.9863C18.2456 42.9863 13.8234 41.144 10.5629 37.8647C7.30236 34.5854 5.47062 30.1377 5.47062 25.5C5.47062 20.8624 7.30236 16.4147 10.5629 13.1354C13.8234 9.85604 18.2456 8.01374 22.8567 8.01374Z" fill="white"/>
<path id="Vector_11" d="M22.854 8.01367V42.9863C27.4651 42.9863 31.8873 41.144 35.1478 37.8647C38.4084 34.5853 40.2401 30.1376 40.2401 25.5C40.2401 20.8623 38.4084 16.4146 35.1478 13.1353C31.8873 9.85597 27.4651 8.01367 22.854 8.01367Z" fill="white"/>
<path id="Vector_12" d="M214.473 19.9923C216.514 19.9923 218.169 18.3282 218.169 16.2754C218.169 14.2226 216.514 12.5585 214.473 12.5585C212.432 12.5585 210.778 14.2226 210.778 16.2754C210.778 18.3282 212.432 19.9923 214.473 19.9923Z" fill="white"/>
</g>
</svg>
