<svg width="260" height="111" viewBox="0 0 260 111" fill="none" xmlns="http://www.w3.org/2000/svg">
<g clip-path="url(#clip0_4095_164053)">
<path d="M32.6133 101.462L49.3672 84.7969L66.1261 101.462H32.6133Z" fill="#67BCC4"/>
<path d="M32.6133 104.488L39.1183 110.957H59.621L66.1261 104.488H32.6133Z" fill="#67BCC4"/>
<path d="M44.9238 83.3594L28.1699 100.024L11.416 83.3594H44.9238Z" fill="#67BCC4"/>
<path d="M87.3136 83.3594L70.5547 100.024L53.8008 83.3594H87.3136Z" fill="#67BCC4"/>
<path d="M112.834 62.7023L135.801 39.8594L158.762 62.7023H112.834Z" fill="#3A809D"/>
<path d="M146.443 93.0703L164.427 110.961H196.1L214.089 93.0703H146.443Z" fill="white"/>
<path d="M-4.63672 94.3851V110.96H34.2071L6.44855 83.3555L-4.63672 94.3851Z" fill="#662482"/>
<path d="M-4.63672 10.3287V80.6204H86.4641L5.57685 0.167969L-4.63672 10.3287Z" fill="#00A099"/>
<path d="M159.26 65.3789L118.814 105.61L78.373 65.3789H159.26Z" fill="#00A099"/>
<path d="M157.83 102.516L166.32 110.959H166.86L158.641 102.787H223.304L215.085 110.959H215.625L223.913 102.717L224.115 102.516H157.83Z" fill="#00A099"/>
<path d="M162.783 102.758H0.197266L81.4876 21.8984L81.6891 22.0993L162.778 102.758H162.783ZM1.0085 102.491H161.972L81.4926 22.4409L1.0085 102.491Z" fill="white"/>
<path d="M107.332 74.9414L143.541 110.959H144.08L108.138 75.2126H218.366L182.425 110.959H182.964L218.976 75.1423L219.177 74.9414H107.332Z" fill="white"/>
<path d="M81.4938 51.878L81.2922 51.6771L40.6445 11.25H122.343L122.141 11.4509L81.4938 51.878ZM41.4558 11.5162L81.4938 51.3406L121.532 11.5162H41.4558Z" fill="white"/>
<path d="M97.9781 20.4414L81.4963 36.8352L65.0195 20.4414H97.9781Z" fill="#67BCC4"/>
<path d="M65.0195 17.4681L81.4963 1.07422L97.9781 17.4681H65.0195Z" fill="#67BCC4"/>
<path d="M85.8574 38.2482L102.334 21.8594L118.811 38.2482H85.8574Z" fill="#67BCC4"/>
<path d="M44.1699 38.2482L60.6517 21.8594L77.1285 38.2482H44.1699Z" fill="#67BCC4"/>
<path d="M63.7402 110.96H118.365L91.0503 83.793L63.7402 110.96Z" fill="white"/>
<path d="M150.383 79.6287L164.653 65.4297L178.927 79.6287H150.383Z" fill="#00A099"/>
</g>
<defs>
<clipPath id="clip0_4095_164053">
<path d="M0 0H260V111H16C7.16344 111 0 103.837 0 95V0Z" fill="white"/>
</clipPath>
</defs>
</svg>
