<svg width="21" height="20" viewBox="0 0 21 20" fill="none" xmlns="http://www.w3.org/2000/svg">
<path opacity="0.2" fill-rule="evenodd" clip-rule="evenodd" d="M10.4974 16.6665C14.1793 16.6665 17.1641 13.6817 17.1641 9.99984C17.1641 6.31794 14.1793 3.33317 10.4974 3.33317C6.8155 3.33317 3.83073 6.31794 3.83073 9.99984C3.83073 13.6817 6.8155 16.6665 10.4974 16.6665ZM10.4974 18.3332C15.0998 18.3332 18.8307 14.6022 18.8307 9.99984C18.8307 5.39746 15.0998 1.6665 10.4974 1.6665C5.89502 1.6665 2.16406 5.39746 2.16406 9.99984C2.16406 14.6022 5.89502 18.3332 10.4974 18.3332Z" fill="white"/>
<path fill-rule="evenodd" clip-rule="evenodd" d="M10.4974 3.33317C6.8155 3.33317 3.83073 6.31794 3.83073 9.99984C3.83073 13.6817 6.8155 16.6665 10.4974 16.6665C10.9576 16.6665 11.3307 17.0396 11.3307 17.4998C11.3307 17.9601 10.9576 18.3332 10.4974 18.3332C5.89502 18.3332 2.16406 14.6022 2.16406 9.99984C2.16406 5.39746 5.89502 1.6665 10.4974 1.6665C15.0998 1.6665 18.8307 5.39746 18.8307 9.99984C18.8307 10.4601 18.4576 10.8332 17.9974 10.8332C17.5372 10.8332 17.1641 10.4601 17.1641 9.99984C17.1641 6.31794 14.1793 3.33317 10.4974 3.33317Z" fill="url(#paint0_linear_4802_32559)"/>
<defs>
<linearGradient id="paint0_linear_4802_32559" x1="10.4974" y1="9.99984" x2="10.4974" y2="16.6665" gradientUnits="userSpaceOnUse">
<stop stop-color="white"/>
<stop offset="1" stop-color="white" stop-opacity="0"/>
</linearGradient>
</defs>
</svg>
